<svg width="1024" height="1024" viewBox="0 0 1024 1024" xmlns="http://www.w3.org/2000/svg">
  <defs>
    <linearGradient id="bg" x1="0" y1="0" x2="1" y2="1">
      <stop offset="0" stop-color="#FBCFE8"/>
      <stop offset="1" stop-color="#DDD6FE"/>
    </linearGradient>
  </defs>

  <!-- background -->
  <rect width="1024" height="1024" rx="220" fill="url(#bg)"/>

  <!-- calendar body -->
  <rect x="232" y="276" width="560" height="500" rx="56" fill="#FFFFFF"/>
  <!-- header bar -->
  <path d="M232 332 a56 56 0 0 1 56 -56 h448 a56 56 0 0 1 56 56 v52 h-560 z" fill="#C7B7F2"/>
  <!-- binder rings -->
  <rect x="356" y="236" width="36" height="92" rx="18" fill="#8B7BD8"/>
  <rect x="632" y="236" width="36" height="92" rx="18" fill="#8B7BD8"/>

  <!-- heart in the center -->
  <path d="M512 706
           C 470 660 400 612 400 548
           C 400 506 434 476 474 476
           C 500 476 512 492 512 492
           C 512 492 524 476 550 476
           C 590 476 624 506 624 548
           C 624 612 554 660 512 706 Z"
        fill="#FB7BB5"/>
</svg>
